<svg xmlns="http://www.w3.org/2000/svg" version="1.1" xmlns:xlink="http://www.w3.org/1999/xlink" xmlns:svgjs="http://svgjs.com/svgjs" width="1500" height="800" preserveAspectRatio="none" viewBox="0 0 1500 800"><g mask="url(&quot;#SvgjsMask1064&quot;)" fill="none"><rect width="1500" height="800" x="0" y="0" fill="url(#SvgjsRadialGradient1065)"></rect><path d="M0 0L175.24 0L0 5.57z" fill="rgba(255, 255, 255, .1)"></path><path d="M0 5.57L175.24 0L582.8299999999999 0L0 163.87z" fill="rgba(255, 255, 255, .075)"></path><path d="M0 163.87L582.8299999999999 0L1077.75 0L0 555.77z" fill="rgba(255, 255, 255, .05)"></path><path d="M0 555.77L1077.75 0L1333.06 0L0 594.48z" fill="rgba(255, 255, 255, .025)"></path><path d="M1500 800L1071.34 800L1500 628.54z" fill="rgba(0, 0, 0, .1)"></path><path d="M1500 628.54L1071.34 800L576.2099999999999 800L1500 291.99999999999994z" fill="rgba(0, 0, 0, .075)"></path><path d="M1500 292L576.21 800L244.33000000000004 800L1500 226.20999999999998z" fill="rgba(0, 0, 0, .05)"></path><path d="M1500 226.21000000000004L244.32999999999993 800L197.59999999999994 800L1500 93.69000000000003z" fill="rgba(0, 0, 0, .025)"></path></g><defs><mask id="SvgjsMask1064"><rect width="1500" height="800" fill="#ffffff"></rect></mask><radialGradient cx="50%" cy="50%" r="850" gradientUnits="userSpaceOnUse" id="SvgjsRadialGradient1065"><stop stop-color="#0e2a47" offset="0"></stop><stop stop-color="rgba(41, 48, 59, 1)" offset="1"></stop></radialGradient></defs></svg>