<svg xmlns="http://www.w3.org/2000/svg" version="1.1" xmlns:xlink="http://www.w3.org/1999/xlink" xmlns:svgjs="http://svgjs.com/svgjs" width="1500" height="800" preserveAspectRatio="none" viewBox="0 0 1500 800"><g mask="url(&quot;#SvgjsMask1068&quot;)" fill="none"><rect width="1500" height="800" x="0" y="0" fill="url(#SvgjsRadialGradient1069)"></rect><path d="M0 0L520.75 0L0 37.83z" fill="rgba(255, 255, 255, .1)"></path><path d="M0 37.83L520.75 0L738.67 0L0 96.16z" fill="rgba(255, 255, 255, .075)"></path><path d="M0 96.16L738.67 0L1068.53 0L0 132.01999999999998z" fill="rgba(255, 255, 255, .05)"></path><path d="M0 132.01999999999998L1068.53 0L1143.06 0L0 293.24z" fill="rgba(255, 255, 255, .025)"></path><path d="M1500 800L1368.58 800L1500 722.0699999999999z" fill="rgba(0, 0, 0, .1)"></path><path d="M1500 722.0699999999999L1368.58 800L1301.85 800L1500 568.41z" fill="rgba(0, 0, 0, .075)"></path><path d="M1500 568.41L1301.85 800L677.4399999999999 800L1500 265.03z" fill="rgba(0, 0, 0, .05)"></path><path d="M1500 265.03L677.44 800L532.59 800L1500 239.95z" fill="rgba(0, 0, 0, .025)"></path></g><defs><mask id="SvgjsMask1068"><rect width="1500" height="800" fill="#ffffff"></rect></mask><radialGradient cx="50%" cy="50%" r="850" gradientUnits="userSpaceOnUse" id="SvgjsRadialGradient1069"><stop stop-color="#0e2a47" offset="0"></stop><stop stop-color="rgba(41, 48, 59, 1)" offset="1"></stop></radialGradient></defs></svg>