<svg xmlns="http://www.w3.org/2000/svg" version="1.1" xmlns:xlink="http://www.w3.org/1999/xlink" xmlns:svgjs="http://svgjs.com/svgjs" width="1500" height="800" preserveAspectRatio="none" viewBox="0 0 1500 800"><g mask="url(&quot;#SvgjsMask1082&quot;)" fill="none"><rect width="1500" height="800" x="0" y="0" fill="url(#SvgjsRadialGradient1083)"></rect><path d="M0 0L118.27 0L0 219.39z" fill="rgba(255, 255, 255, .1)"></path><path d="M0 219.39L118.27 0L836.03 0L0 394.78z" fill="rgba(255, 255, 255, .075)"></path><path d="M0 394.78L836.03 0L953.65 0L0 603.4499999999999z" fill="rgba(255, 255, 255, .05)"></path><path d="M0 603.4499999999999L953.65 0L1031.67 0L0 625.9499999999999z" fill="rgba(255, 255, 255, .025)"></path><path d="M1500 800L1304 800L1500 554.46z" fill="rgba(0, 0, 0, .1)"></path><path d="M1500 554.46L1304 800L925.14 800L1500 277.93000000000006z" fill="rgba(0, 0, 0, .075)"></path><path d="M1500 277.93000000000006L925.14 800L552.13 800L1500 145.45000000000007z" fill="rgba(0, 0, 0, .05)"></path><path d="M1500 145.45000000000005L552.13 800L527.08 800L1500 76.85000000000005z" fill="rgba(0, 0, 0, .025)"></path></g><defs><mask id="SvgjsMask1082"><rect width="1500" height="800" fill="#ffffff"></rect></mask><radialGradient cx="50%" cy="50%" r="850" gradientUnits="userSpaceOnUse" id="SvgjsRadialGradient1083"><stop stop-color="#0e2a47" offset="0"></stop><stop stop-color="rgba(41, 48, 59, 1)" offset="1"></stop></radialGradient></defs></svg>