<svg xmlns="http://www.w3.org/2000/svg" version="1.1" xmlns:xlink="http://www.w3.org/1999/xlink" xmlns:svgjs="http://svgjs.com/svgjs" width="1500" height="800" preserveAspectRatio="none" viewBox="0 0 1500 800"><g mask="url(&quot;#SvgjsMask1080&quot;)" fill="none"><rect width="1500" height="800" x="0" y="0" fill="url(#SvgjsRadialGradient1081)"></rect><path d="M0 0L396.91 0L0 318.56z" fill="rgba(255, 255, 255, .1)"></path><path d="M0 318.56L396.91 0L477.18 0L0 565.5z" fill="rgba(255, 255, 255, .075)"></path><path d="M0 565.5L477.18 0L981.48 0L0 626.94z" fill="rgba(255, 255, 255, .05)"></path><path d="M0 626.94L981.48 0L1240.52 0L0 732.24z" fill="rgba(255, 255, 255, .025)"></path><path d="M1500 800L876.17 800L1500 653.4z" fill="rgba(0, 0, 0, .1)"></path><path d="M1500 653.4L876.17 800L815.68 800L1500 559.27z" fill="rgba(0, 0, 0, .075)"></path><path d="M1500 559.27L815.68 800L546.78 800L1500 250.09999999999997z" fill="rgba(0, 0, 0, .05)"></path><path d="M1500 250.10000000000002L546.78 800L263.80999999999995 800L1500 105.90000000000003z" fill="rgba(0, 0, 0, .025)"></path></g><defs><mask id="SvgjsMask1080"><rect width="1500" height="800" fill="#ffffff"></rect></mask><radialGradient cx="50%" cy="50%" r="850" gradientUnits="userSpaceOnUse" id="SvgjsRadialGradient1081"><stop stop-color="#0e2a47" offset="0"></stop><stop stop-color="rgba(41, 48, 59, 1)" offset="1"></stop></radialGradient></defs></svg>