<svg xmlns="http://www.w3.org/2000/svg" version="1.1" xmlns:xlink="http://www.w3.org/1999/xlink" xmlns:svgjs="http://svgjs.com/svgjs" width="1500" height="800" preserveAspectRatio="none" viewBox="0 0 1500 800"><g mask="url(&quot;#SvgjsMask1076&quot;)" fill="none"><rect width="1500" height="800" x="0" y="0" fill="url(#SvgjsRadialGradient1077)"></rect><path d="M0 0L636.17 0L0 365.3z" fill="rgba(255, 255, 255, .1)"></path><path d="M0 365.3L636.17 0L733.3499999999999 0L0 582.84z" fill="rgba(255, 255, 255, .075)"></path><path d="M0 582.84L733.3499999999999 0L831.56 0L0 590.22z" fill="rgba(255, 255, 255, .05)"></path><path d="M0 590.22L831.56 0L847.8599999999999 0L0 592.14z" fill="rgba(255, 255, 255, .025)"></path><path d="M1500 800L1142.09 800L1500 679.98z" fill="rgba(0, 0, 0, .1)"></path><path d="M1500 679.98L1142.09 800L1033.1799999999998 800L1500 473.1z" fill="rgba(0, 0, 0, .075)"></path><path d="M1500 473.1L1033.1799999999998 800L559.8999999999999 800L1500 376.6z" fill="rgba(0, 0, 0, .05)"></path><path d="M1500 376.6L559.9 800L390.92999999999995 800L1500 143.10000000000002z" fill="rgba(0, 0, 0, .025)"></path></g><defs><mask id="SvgjsMask1076"><rect width="1500" height="800" fill="#ffffff"></rect></mask><radialGradient cx="50%" cy="50%" r="850" gradientUnits="userSpaceOnUse" id="SvgjsRadialGradient1077"><stop stop-color="#0e2a47" offset="0"></stop><stop stop-color="rgba(41, 48, 59, 1)" offset="1"></stop></radialGradient></defs></svg>