<svg xmlns="http://www.w3.org/2000/svg" version="1.1" xmlns:xlink="http://www.w3.org/1999/xlink" xmlns:svgjs="http://svgjs.com/svgjs" width="1500" height="800" preserveAspectRatio="none" viewBox="0 0 1500 800"><g mask="url(&quot;#SvgjsMask1062&quot;)" fill="none"><rect width="1500" height="800" x="0" y="0" fill="url(#SvgjsRadialGradient1063)"></rect><path d="M0 0L320.93 0L0 268.19z" fill="rgba(255, 255, 255, .1)"></path><path d="M0 268.19L320.93 0L514.47 0L0 431.01z" fill="rgba(255, 255, 255, .075)"></path><path d="M0 431.01L514.47 0L946.87 0L0 596.95z" fill="rgba(255, 255, 255, .05)"></path><path d="M0 596.95L946.87 0L1218.78 0L0 683.22z" fill="rgba(255, 255, 255, .025)"></path><path d="M1500 800L783.14 800L1500 471.88z" fill="rgba(0, 0, 0, .1)"></path><path d="M1500 471.88L783.14 800L566.02 800L1500 411.49z" fill="rgba(0, 0, 0, .075)"></path><path d="M1500 411.49L566.02 800L529.0799999999999 800L1500 289.63z" fill="rgba(0, 0, 0, .05)"></path><path d="M1500 289.63L529.0799999999999 800L519.0899999999999 800L1500 199.58999999999997z" fill="rgba(0, 0, 0, .025)"></path></g><defs><mask id="SvgjsMask1062"><rect width="1500" height="800" fill="#ffffff"></rect></mask><radialGradient cx="50%" cy="50%" r="850" gradientUnits="userSpaceOnUse" id="SvgjsRadialGradient1063"><stop stop-color="#0e2a47" offset="0"></stop><stop stop-color="rgba(41, 48, 59, 1)" offset="1"></stop></radialGradient></defs></svg>