<svg xmlns="http://www.w3.org/2000/svg" version="1.1" xmlns:xlink="http://www.w3.org/1999/xlink" xmlns:svgjs="http://svgjs.com/svgjs" width="1500" height="800" preserveAspectRatio="none" viewBox="0 0 1500 800"><g mask="url(&quot;#SvgjsMask1074&quot;)" fill="none"><rect width="1500" height="800" x="0" y="0" fill="url(#SvgjsRadialGradient1075)"></rect><path d="M0 0L515.4 0L0 251.48z" fill="rgba(255, 255, 255, .1)"></path><path d="M0 251.48L515.4 0L518 0L0 397.25z" fill="rgba(255, 255, 255, .075)"></path><path d="M0 397.25L518 0L901.4300000000001 0L0 522.02z" fill="rgba(255, 255, 255, .05)"></path><path d="M0 522.02L901.4300000000001 0L1298.29 0L0 613.6z" fill="rgba(255, 255, 255, .025)"></path><path d="M1500 800L1195.94 800L1500 792.94z" fill="rgba(0, 0, 0, .1)"></path><path d="M1500 792.94L1195.94 800L758 800L1500 410.8500000000001z" fill="rgba(0, 0, 0, .075)"></path><path d="M1500 410.85L758 800L445.52 800L1500 400.90000000000003z" fill="rgba(0, 0, 0, .05)"></path><path d="M1500 400.90000000000003L445.52 800L251.76999999999998 800L1500 341.37z" fill="rgba(0, 0, 0, .025)"></path></g><defs><mask id="SvgjsMask1074"><rect width="1500" height="800" fill="#ffffff"></rect></mask><radialGradient cx="50%" cy="50%" r="850" gradientUnits="userSpaceOnUse" id="SvgjsRadialGradient1075"><stop stop-color="#0e2a47" offset="0"></stop><stop stop-color="rgba(41, 48, 59, 1)" offset="1"></stop></radialGradient></defs></svg>