<svg xmlns="http://www.w3.org/2000/svg" version="1.1" xmlns:xlink="http://www.w3.org/1999/xlink" xmlns:svgjs="http://svgjs.com/svgjs" width="1500" height="800" preserveAspectRatio="none" viewBox="0 0 1500 800"><g mask="url(&quot;#SvgjsMask1070&quot;)" fill="none"><rect width="1500" height="800" x="0" y="0" fill="url(#SvgjsRadialGradient1071)"></rect><path d="M0 0L285.39 0L0 1.61z" fill="rgba(255, 255, 255, .1)"></path><path d="M0 1.61L285.39 0L434.25 0L0 392.84000000000003z" fill="rgba(255, 255, 255, .075)"></path><path d="M0 392.84000000000003L434.25 0L750.95 0L0 410.67z" fill="rgba(255, 255, 255, .05)"></path><path d="M0 410.67L750.95 0L863 0L0 520.04z" fill="rgba(255, 255, 255, .025)"></path><path d="M1500 800L979.83 800L1500 476.89z" fill="rgba(0, 0, 0, .1)"></path><path d="M1500 476.89L979.83 800L845.8100000000001 800L1500 314.71z" fill="rgba(0, 0, 0, .075)"></path><path d="M1500 314.71L845.8100000000001 800L818.6800000000001 800L1500 285.06z" fill="rgba(0, 0, 0, .05)"></path><path d="M1500 285.05999999999995L818.6800000000001 800L536.46 800L1500 121.93999999999994z" fill="rgba(0, 0, 0, .025)"></path></g><defs><mask id="SvgjsMask1070"><rect width="1500" height="800" fill="#ffffff"></rect></mask><radialGradient cx="50%" cy="50%" r="850" gradientUnits="userSpaceOnUse" id="SvgjsRadialGradient1071"><stop stop-color="#0e2a47" offset="0"></stop><stop stop-color="rgba(41, 48, 59, 1)" offset="1"></stop></radialGradient></defs></svg>