<svg xmlns="http://www.w3.org/2000/svg" version="1.1" xmlns:xlink="http://www.w3.org/1999/xlink" xmlns:svgjs="http://svgjs.com/svgjs" width="1500" height="800" preserveAspectRatio="none" viewBox="0 0 1500 800"><g mask="url(&quot;#SvgjsMask1072&quot;)" fill="none"><rect width="1500" height="800" x="0" y="0" fill="url(#SvgjsRadialGradient1073)"></rect><path d="M0 0L607.61 0L0 94.33z" fill="rgba(255, 255, 255, .1)"></path><path d="M0 94.33L607.61 0L706.94 0L0 434.37z" fill="rgba(255, 255, 255, .075)"></path><path d="M0 434.37L706.94 0L919 0L0 569.6700000000001z" fill="rgba(255, 255, 255, .05)"></path><path d="M0 569.6700000000001L919 0L1253.25 0L0 717.6500000000001z" fill="rgba(255, 255, 255, .025)"></path><path d="M1500 800L1445.83 800L1500 555.44z" fill="rgba(0, 0, 0, .1)"></path><path d="M1500 555.44L1445.83 800L973.6299999999999 800L1500 315.0400000000001z" fill="rgba(0, 0, 0, .075)"></path><path d="M1500 315.03999999999996L973.63 800L859.3 800L1500 226.19999999999996z" fill="rgba(0, 0, 0, .05)"></path><path d="M1500 226.19999999999993L859.3 800L512.8799999999999 800L1500 138.6599999999999z" fill="rgba(0, 0, 0, .025)"></path></g><defs><mask id="SvgjsMask1072"><rect width="1500" height="800" fill="#ffffff"></rect></mask><radialGradient cx="50%" cy="50%" r="850" gradientUnits="userSpaceOnUse" id="SvgjsRadialGradient1073"><stop stop-color="#0e2a47" offset="0"></stop><stop stop-color="rgba(41, 48, 59, 1)" offset="1"></stop></radialGradient></defs></svg>