<svg xmlns="http://www.w3.org/2000/svg" version="1.1" xmlns:xlink="http://www.w3.org/1999/xlink" xmlns:svgjs="http://svgjs.com/svgjs" width="1500" height="800" preserveAspectRatio="none" viewBox="0 0 1500 800"><g mask="url(&quot;#SvgjsMask1078&quot;)" fill="none"><rect width="1500" height="800" x="0" y="0" fill="url(#SvgjsRadialGradient1079)"></rect><path d="M0 0L43.52 0L0 266.04z" fill="rgba(255, 255, 255, .1)"></path><path d="M0 266.04L43.52 0L619.21 0L0 400.51z" fill="rgba(255, 255, 255, .075)"></path><path d="M0 400.51L619.21 0L882.04 0L0 481.32z" fill="rgba(255, 255, 255, .05)"></path><path d="M0 481.32L882.04 0L901.81 0L0 651.3299999999999z" fill="rgba(255, 255, 255, .025)"></path><path d="M1500 800L1105.02 800L1500 521.98z" fill="rgba(0, 0, 0, .1)"></path><path d="M1500 521.98L1105.02 800L1094.15 800L1500 372.04z" fill="rgba(0, 0, 0, .075)"></path><path d="M1500 372.04L1094.15 800L758.8000000000001 800L1500 240.57000000000002z" fill="rgba(0, 0, 0, .05)"></path><path d="M1500 240.57000000000005L758.8 800L229.07999999999993 800L1500 87.64000000000004z" fill="rgba(0, 0, 0, .025)"></path></g><defs><mask id="SvgjsMask1078"><rect width="1500" height="800" fill="#ffffff"></rect></mask><radialGradient cx="50%" cy="50%" r="850" gradientUnits="userSpaceOnUse" id="SvgjsRadialGradient1079"><stop stop-color="#0e2a47" offset="0"></stop><stop stop-color="rgba(41, 48, 59, 1)" offset="1"></stop></radialGradient></defs></svg>