<svg xmlns="http://www.w3.org/2000/svg" version="1.1" xmlns:xlink="http://www.w3.org/1999/xlink" xmlns:svgjs="http://svgjs.com/svgjs" width="1500" height="800" preserveAspectRatio="none" viewBox="0 0 1500 800"><g mask="url(&quot;#SvgjsMask1059&quot;)" fill="none"><rect width="1500" height="800" x="0" y="0" fill="rgba(41, 48, 59, 1)"></rect><path d="M -334.72618574945017,153 C -259.73,238 -109.73,543 40.27381425054985,578 C 190.27,613 265.27,324.8 415.27381425054983,328 C 565.27,331.2 640.27,626 790.2738142505499,594 C 940.27,562 1015.27,190.8 1165.2738142505498,168 C 1315.27,145.2 1473.33,445.8 1540.2738142505498,480 C 1607.22,514.2 1508.05,367.2 1500,339" stroke="rgba(0, 233, 233, 1)" stroke-width="2"></path><path d="M -562.1537783952925,234 C -487.15,294 -337.15,543 -187.1537783952925,534 C -37.15,525 37.85,198.8 187.8462216047075,189 C 337.85,179.2 412.85,468.6 562.8462216047075,485 C 712.85,501.4 787.85,279.6 937.8462216047075,271 C 1087.85,262.4 1200.42,431.4 1312.8462216047076,442 C 1425.28,452.6 1462.57,347.6 1500,324" stroke="rgba(0, 233, 233, 1)" stroke-width="2"></path><path d="M -18.26316767414619,292 C 56.74,343 206.74,574.8 356.7368323258538,547 C 506.74,519.2 581.74,134.6 731.7368323258538,153 C 881.74,171.4 956.74,622.8 1106.7368323258538,639 C 1256.74,655.2 1331.74,281.2 1481.7368323258538,234 C 1631.74,186.8 1853.08,411.8 1856.7368323258538,403 C 1860.39,394.2 1571.35,232.6 1500,190" stroke="rgba(0, 130, 181, 1)" stroke-width="2"></path><path d="M -449.23820122536165,475 C -374.24,453.2 -224.24,347 -74.23820122536168,366 C 75.76,385 150.76,604.6 300.76179877463835,570 C 450.76,535.4 525.76,185.4 675.7617987746384,193 C 825.76,200.6 900.76,602.4 1050.7617987746382,608 C 1200.76,613.6 1335.91,225 1425.7617987746382,221 C 1515.61,217 1485.15,514.6 1500,588" stroke="rgba(0, 233, 233, 1)" stroke-width="2"></path><path d="M -564.2921934896888,285 C -489.29,322.2 -339.29,482.4 -189.2921934896887,471 C -39.29,459.6 35.71,237.6 185.7078065103113,228 C 335.71,218.4 410.71,410 560.7078065103112,423 C 710.71,436 785.71,263 935.7078065103112,293 C 1085.71,323 1197.85,590 1310.7078065103112,573 C 1423.57,556 1462.14,281 1500,208" stroke="rgba(0, 130, 181, 1)" stroke-width="2"></path><path d="M -603.4244661607217,417 C -528.42,383.8 -378.42,253 -228.4244661607217,251 C -78.42,249 -3.42,398.2 146.5755338392783,407 C 296.58,415.8 371.58,274.4 521.5755338392783,295 C 671.58,315.6 746.58,536.8 896.5755338392783,510 C 1046.58,483.2 1150.89,139 1271.5755338392783,161 C 1392.26,183 1454.32,528.2 1500,620" stroke="rgba(0, 130, 181, 1)" stroke-width="2"></path></g><defs><mask id="SvgjsMask1059"><rect width="1500" height="800" fill="#ffffff"></rect></mask></defs></svg>